<svg width="45" height="45" viewBox="0 0 45 45" fill="none" xmlns="http://www.w3.org/2000/svg">
<g clip-path="url(#clip0_208_19)">
<path d="M39.6 41.4002C41.5882 41.4002 43.2 39.7884 43.2 37.8002C43.2 35.812 41.5882 34.2002 39.6 34.2002C37.6118 34.2002 36 35.812 36 37.8002C36 39.7884 37.6118 41.4002 39.6 41.4002Z" fill="#F4C708"/>
<path d="M13.4999 41.4002C15.4881 41.4002 17.0999 39.7884 17.0999 37.8002C17.0999 35.812 15.4881 34.2002 13.4999 34.2002C11.5117 34.2002 9.8999 35.812 9.8999 37.8002C9.8999 39.7884 11.5117 41.4002 13.4999 41.4002Z" fill="#F4C708"/>
<path d="M42.3 29.6999H14.1939L14.7942 28.7261C15.0516 28.3085 15.1272 27.8036 15.0039 27.3284L14.418 25.073L40.5027 23.7176C41.4918 23.6672 42.3 22.8149 42.3 21.8249V9.8999C42.3 8.9099 41.49 8.0999 40.5 8.0999H10.0071L9.6552 6.7472C9.55495 6.3614 9.32946 6.01978 9.01412 5.77595C8.69878 5.53211 8.31142 5.39985 7.9128 5.3999H1.8C1.32261 5.3999 0.864773 5.58954 0.527208 5.92711C0.189642 6.26468 0 6.72251 0 7.1999C0 7.67729 0.189642 8.13513 0.527208 8.47269C0.864773 8.81026 1.32261 8.9999 1.8 8.9999H6.5214L11.3274 27.4904L9.4374 30.5549C9.26929 30.8276 9.17706 31.1402 9.17026 31.4604C9.16345 31.7807 9.24232 32.0969 9.3987 32.3765C9.55444 32.6564 9.78216 32.8896 10.0583 33.0519C10.3344 33.2143 10.6489 33.2999 10.9692 33.2999H42.3C42.7774 33.2999 43.2352 33.1103 43.5728 32.7727C43.9104 32.4351 44.1 31.9773 44.1 31.4999C44.1 31.0225 43.9104 30.5647 43.5728 30.2271C43.2352 29.8895 42.7774 29.6999 42.3 29.6999Z" fill="#F4C708"/>
</g>
<defs>
<clipPath id="clip0_208_19">
<rect width="45" height="45" fill="white"/>
</clipPath>
</defs>
</svg>
